<svg width="316" height="380" viewBox="0 0 316 380" fill="none" xmlns="http://www.w3.org/2000/svg">
<path d="M81.3017 320.719L62.9659 322.713L54.1913 316.731L49.1135 322.713L51.5533 335.333L54.3399 345.297L71.2638 336.702L84.8933 335.469L81.3017 320.719Z" fill="#A0616A"/>
<path d="M174.206 299.584L129.949 298.785L76.1184 321.512L83.2954 337.067L131.943 323.506L207.298 345.037L196.932 294.005L174.206 299.584Z" fill="#2F2E41"/>
<path d="M52.8105 322.168L61.61 321.481L50.4203 297.844C50.4203 297.844 45.2372 296.011 44.4384 301.714C43.6396 307.411 50.445 346.009 52.439 346.009C54.4329 346.009 61.1208 342.108 61.1208 342.108L51.2191 323.363L52.8167 322.168L52.8105 322.168Z" fill="#2F2E41"/>
<path d="M273.446 315.697C272.56 315.79 271.594 315.932 270.566 316.143C266.207 317.028 266.12 319.988 266.157 320.663L266.126 320.645C265.687 321.344 265.414 322.057 265.247 322.732L265.049 313.666C265.179 313.4 265.296 313.09 265.396 312.78C265.724 313.784 266.256 314.731 266.715 314.669C267.315 314.589 267.575 312.824 267.464 311.573C268.225 312.551 269.507 313.604 269.99 313.282C270.374 313.022 270.145 311.957 269.724 310.991C270.603 311.523 271.576 311.87 271.879 311.529C272.294 311.071 271.303 309.505 270.393 308.631C271.613 308.743 273.167 308.551 273.266 307.994C273.353 307.535 272.424 306.959 271.439 306.588C272.43 306.328 273.359 305.87 273.328 305.418C273.291 304.879 271.916 304.52 270.727 304.47C271.625 303.77 272.449 302.798 272.195 302.359C271.966 301.956 270.888 302.111 269.891 302.464C270.479 301.622 270.894 300.674 270.579 300.352C270.188 299.95 268.795 300.643 267.842 301.417C268.027 300.216 267.934 298.699 267.396 298.563C266.944 298.445 266.306 299.33 265.866 300.29C265.674 299.281 265.278 298.327 264.826 298.327C264.182 298.327 263.662 300.272 263.662 301.535V301.739C263.6 301.665 263.525 301.584 263.439 301.504C262.528 300.625 260.776 299.646 260.324 300.104C260.008 300.426 260.423 301.374 261.011 302.216C260.014 301.863 258.937 301.702 258.708 302.111C258.398 302.656 259.729 304.006 260.807 304.662C260.745 304.656 260.671 304.65 260.603 304.643C259.339 304.557 257.364 304.947 257.321 305.591C257.29 306.043 258.219 306.501 259.209 306.761C258.219 307.133 257.296 307.709 257.383 308.167C257.482 308.724 259.036 308.916 260.256 308.805C259.346 309.678 258.355 311.245 258.77 311.703C259.073 312.037 260.045 311.69 260.925 311.164C260.504 312.13 260.274 313.195 260.658 313.455C261.166 313.796 262.572 312.607 263.309 311.585C263.234 312.836 263.532 314.558 264.126 314.626C264.374 314.657 264.64 314.39 264.875 313.982L264.2 323.729C264.046 324.862 265.049 325.605 265.142 326.069L265.284 332.67C265.123 332.2 264.9 331.717 264.603 331.24L264.572 331.258C264.609 330.577 264.522 327.624 260.163 326.738C259.135 326.527 258.169 326.385 257.283 326.292C256.237 326.181 255.828 327.611 256.776 328.076C258.144 328.744 259.432 329.587 260.101 330.583C261.816 333.135 264.182 331.661 264.522 331.432C264.9 332.057 265.148 332.689 265.303 333.29L265.377 336.794C265.358 336.875 265.346 336.925 265.346 336.925L265.383 336.937L265.569 345.421L267.303 345.408L266.684 336.739C266.789 336.268 267.111 334.677 266.684 333.023L266.064 326.212L265.259 323.537C265.377 322.707 265.649 321.778 266.201 320.855C266.535 321.084 268.907 322.558 270.622 320.007C271.291 319.01 272.579 318.168 273.947 317.499C274.889 317.035 274.486 315.604 273.439 315.716V315.697L273.446 315.697ZM265.544 335.767L265.513 334.28C265.581 334.844 265.575 335.346 265.544 335.767Z" fill="#F2F2F2"/>
<path d="M0 345.51C0 345.792 0.31921 346.019 0.716717 346.019H315.283C315.681 346.019 316 345.792 316 345.51C316 345.229 315.681 345.002 315.283 345.002H0.716717C0.31921 345.002 0 345.229 0 345.51Z" fill="#3F3D56"/>
<path d="M205.453 246.416L209.843 231.666L222.6 231.263L227.783 249.605L205.453 246.416Z" fill="#A0616A"/>
<path opacity="0.1" d="M205.453 246.416L209.843 231.666L222.6 231.263L227.783 249.605L205.453 246.416Z" fill="black"/>
<path d="M225.04 244.36L204.307 243.562L197.88 256.782L187.959 315.332L239.994 327.091C239.994 327.091 243.183 261.699 236.006 252.528C228.829 243.357 225.04 244.354 225.04 244.354V244.36Z" fill="#E6E6E6"/>
<path d="M164.317 198.512C163.45 193.898 160.373 190.598 157.431 191.149C154.49 191.7 152.812 195.886 153.679 200.506C154.001 202.357 154.756 204.097 155.889 205.596L159.797 225.108L167.506 223.542L164.088 204.06C164.602 202.252 164.676 200.351 164.305 198.512L164.317 198.512Z" fill="#A0616A"/>
<path d="M221.938 249.673L179.594 241.332L167.692 205.54L154.36 208.698L167.735 261.569L215.665 267.873L221.938 249.673Z" fill="#E6E6E6"/>
<path d="M205.937 259.329C217.49 271.229 217.212 290.235 205.321 301.79L205.215 301.888L205.103 301.99L204.718 302.343L204.853 302.477L161.776 344.317L119.874 301.174L119.871 301.171L119.589 300.871L119.587 300.869C108.301 288.937 108.703 270.147 120.483 258.702C132.226 247.299 150.932 247.403 162.547 258.927L162.622 259.001V259.531L162.892 259.269L162.901 259.278L163.253 258.925C163.293 258.886 163.332 258.845 163.368 258.808L163.471 258.708C175.372 247.153 194.382 247.433 205.937 259.329Z" fill="#5757FF" stroke="white"/>
<path d="M227.727 306.836C227.727 306.836 243.376 319.871 237.567 327.778C231.765 335.686 212.024 349.842 203.106 345.451C194.189 341.061 175.68 309.331 175.68 309.331L170.838 341.835L158.168 340.714C158.168 340.714 148.966 294.804 157.45 287.763C165.94 280.722 204.58 293.169 204.58 293.169L227.721 306.842L227.727 306.836Z" fill="#2F2E41"/>
<path d="M161.332 336.398L157.704 347.675L150.143 358.27L155.939 366.945L174.361 354.814L174.299 348.572L171.408 344.677L169.364 337.209L161.332 336.398Z" fill="#A0616A"/>
<path d="M155.536 362.673L150.91 355.155L134.983 375.893C134.983 375.893 135.72 381.343 141.157 379.448C146.594 377.553 180.299 360.276 179.389 358.499C178.479 356.722 174.745 347.173 174.745 347.173L157.332 363.54L155.542 362.666L155.536 362.673Z" fill="#2F2E41"/>
<path d="M165.314 306.73C160.639 307.195 157.091 309.981 157.388 312.954C157.685 315.926 161.71 317.963 166.385 317.499C168.255 317.338 170.057 316.731 171.649 315.734L191.421 313.523L190.523 305.709L170.819 307.436C169.067 306.768 167.178 306.526 165.314 306.737L165.314 306.73Z" fill="#A0616A"/>
<path d="M221.256 253.736L209.292 295.2L172.609 303.969L174.603 317.53L228.433 308.755L238.843 261.551L221.256 253.736Z" fill="#E6E6E6"/>
<path d="M214.6 236.081C223.957 236.081 231.542 228.496 231.542 219.139C231.542 209.782 223.957 202.196 214.6 202.196C205.243 202.196 197.657 209.782 197.657 219.139C197.657 228.496 205.243 236.081 214.6 236.081Z" fill="#A0616A"/>
<path d="M215.949 196.357C215.46 196.642 214.804 196.208 214.643 195.663C214.488 195.118 214.667 194.536 214.853 194.004C215.157 193.1 215.46 192.195 215.77 191.298C216.42 189.378 217.107 187.39 218.513 185.929C220.631 183.724 223.999 183.161 227.034 183.569C230.929 184.09 234.768 186.201 236.582 189.688C238.391 193.174 237.623 198.041 234.353 200.215C239.016 205.559 240.638 211.516 240.385 218.6C240.131 225.69 232.402 232.211 227.368 237.202C226.241 236.521 225.219 233.325 225.839 232.161C226.458 231.003 225.572 229.653 226.334 228.588C227.096 227.523 227.74 229.22 226.966 228.161C226.476 227.492 228.384 225.944 227.659 225.548C224.148 223.603 222.978 219.225 220.767 215.869C218.104 211.825 213.547 209.082 208.729 208.63C206.072 208.382 203.267 208.834 201.094 210.376C198.914 211.918 197.508 214.674 198.01 217.293C196.703 215.968 196.053 214.017 196.295 212.172C196.542 210.327 197.675 208.618 199.285 207.676C198.307 204.444 199.143 200.722 201.416 198.221C203.688 195.719 212.896 196.146 216.209 196.803L215.955 196.363L215.949 196.357Z" fill="#2F2E41"/>
<path d="M216.47 208.723C220.86 209.2 224.03 213.002 226.706 216.513C228.247 218.538 229.864 220.774 229.827 223.319C229.789 225.888 228.068 228.099 227.244 230.539C225.901 234.527 227.207 239.264 230.409 241.995C227.25 242.596 223.832 240.224 223.287 237.053C222.65 233.363 225.448 229.802 225.12 226.068C224.829 222.78 222.241 220.253 220.036 217.795C217.832 215.337 215.77 212.079 216.779 208.94L216.469 208.729L216.47 208.723Z" fill="#2F2E41"/>
<path d="M231.779 45.6097C231.714 45.6652 231.634 45.7339 231.563 45.8056L231.209 46.1591L231.314 46.2639L193.626 82.8621L156.927 45.0726L156.925 45.0708L156.679 44.8156C156.679 44.8152 156.679 44.8147 156.678 44.8143C146.807 34.373 147.161 17.9368 157.465 7.92779C167.739 -2.05238 184.107 -1.96383 194.264 8.12389L194.316 8.1759V8.76216L194.615 8.47224L194.617 8.47502L194.813 8.27978L195.165 7.93773C205.567 -2.16988 222.2 -1.93427 232.307 8.47741L232.308 8.47758C242.412 18.8759 242.18 35.5012 231.779 45.6097Z" fill="#FF6254" stroke="white"/>
<path d="M159.525 189.843C159.525 189.843 159.525 136.5 177.025 136.843C194.525 137.186 194.525 83.8432 194.525 83.8432" stroke="#898989"/>
</svg>
